<?xml version="1.0" encoding="UTF-8"?>
<svg id="pinnacle" xmlns="http://www.w3.org/2000/svg" width="560" height="160" viewBox="0 0 560 160">
  <defs>
    <style>
      .cls-1 {
        fill: #0b1422;
      }

      .cls-1, .cls-2 {
        stroke-width: 0px;
      }

      .cls-2 {
        fill: #f26222;
      }
    </style>
  </defs>
  <g id="ZXGvTU.tif">
    <g id="T8fuUZ.tif">
      <g>
        <path class="cls-1" d="M313.93,12.46c2.18,2.57,3.35,5.69,4.75,8.73,13.24,27.73,26.41,55.47,39.58,83.28.47,1.01,1.17,1.95,1.25,3.19-.62.86-1.48.47-2.18.47-6.7,0-13.32-.08-20.02.08-1.87.08-3.04-.47-3.58-2.34,0-.16-.16-.16-.16-.31-1.17-2.34-1.56-5.53-3.66-6.78-2.03-1.25-4.91-.39-7.4-.39-8.18-.08-16.36,0-24.62,0-1.95,3.04-3.04,6.47-4.83,9.66h-24.54c-.47-1.25.31-1.87.7-2.73,14.1-29.76,28.28-59.52,42.46-89.28.55-1.09,1.32-2.18,1.09-3.58h1.17ZM313.77,62.63c-2.73,6-5.06,11.3-7.63,16.83h15.27c-2.49-5.69-4.91-11.06-7.63-16.83Z"/>
        <path class="cls-2" d="M556.6,127.99v19.55H3.32v-19.55h553.28Z"/>
        <path class="cls-1" d="M186.63,108.12c-6.86,0-13.4-.08-19.94.08-1.71,0-2.1-1.32-2.8-2.18-7.48-10.83-15.04-21.74-22.51-32.64-4.83-7.01-9.66-13.94-14.88-21.5v56.17h-21.58V18.77c7.25,0,14.33.08,21.42-.08,1.79,0,2.26,1.32,3.04,2.42,8.57,11.92,17.06,23.99,25.55,35.99,3.19,4.44,6.39,8.96,10.13,13.32V18.92h21.42c.16,29.53.16,59.13.16,89.2Z"/>
        <path class="cls-1" d="M193.49,18.61c7.17,0,14.33.08,21.42-.08,1.64,0,2.18,1.09,2.8,2.1,10.13,14.1,20.1,28.28,30.15,42.46,1.79,2.49,3.58,4.99,5.76,8.1V18.69h21.35c.62.62.23,1.56.23,2.42v53.44c0,1.56-.16,2.96-.86,4.36-4.21,8.8-8.41,17.61-12.62,26.41-1.71,3.58-7.09,3.97-9.35.62-11.61-16.83-23.22-33.73-34.82-50.56-.7-1.01-1.4-2.03-2.57-3.74v56.09h-21.5c0-29.53,0-59.13,0-89.12Z"/>
        <path class="cls-1" d="M520.53,88.02h36.07v19.71h-57.73V18.69h57.81v19.79h-36.15v14.49h36.07v20.02h-36.15c.08,5.06.08,9.82.08,15.04Z"/>
        <path class="cls-1" d="M413.41,73.3c6.78,3.58,13.17,7.01,19.71,10.52-2.18,5.14-5.38,9.27-9.19,12.93-15.27,14.57-40.35,16.83-58.12,5.22-1.64-1.01-2.8-2.26-3.58-4.05-5.06-10.67-10.13-21.35-15.27-32.02-.62-1.25-1.17-2.42-1.09-3.9.7-20.02,12.39-36.07,30.15-42.07,20.1-6.78,41.91-.16,53.68,16.28.7,1.01,1.64,1.95,1.87,3.58-6,3.9-12.08,7.71-18.54,11.76-4.75-8.41-11.61-13.17-21.5-12.93-6.7.16-12.39,2.49-16.91,7.4-9.66,10.59-8.41,28.51,2.57,36.93,6.15,4.75,13.09,5.92,20.57,4.21,7.4-1.79,12.23-6.93,15.66-13.87Z"/>
        <path class="cls-1" d="M3.4,18.61h34.59c2.18,0,4.36.23,6.54.62,15.89,2.73,26.72,15.27,27.11,31.4.31,16.28-10.13,29.6-25.79,33.03-3.35.7-6.86.86-10.36.93-3.43.08-6.86,0-10.67,0v23.22H3.32c.08-29.53.08-59.13.08-89.2ZM24.9,64.5h11.69c.93,0,1.87-.16,2.8-.31,6.08-1.09,10.21-6.08,10.36-12.39.16-6.47-3.66-11.69-9.66-13.01-4.99-1.25-10.05-.47-15.11-.62-.08,8.96-.08,17.37-.08,26.33Z"/>
        <path class="cls-1" d="M437.48,18.85h21.5v68.63h34.36v20.26h-55.86c0-29.68,0-59.21,0-88.89Z"/>
        <path class="cls-1" d="M98.6,18.92v88.66h-21.42V18.92c7.01,0,14.02,0,21.42,0Z"/>
      </g>
    </g>
  </g>
</svg>