<?xml version="1.0" encoding="UTF-8"?>
<svg id="Sports_Interaction" data-name="Sports Interaction" xmlns="http://www.w3.org/2000/svg" width="560" height="160" viewBox="0 0 560 160">
  <defs>
    <style>
      .cls-1 {
        fill: #ec5f28;
      }

      .cls-1, .cls-2 {
        stroke-width: 0px;
      }

      .cls-2 {
        fill: #05153e;
      }
    </style>
  </defs>
  <g id="Layer_1-2" data-name="Layer 1-2">
    <path class="cls-1" d="M191.47,3.41c-2.19,10.81-8.04,20.51-16.58,27.5-8.52,6.99-19.19,10.83-30.21,10.85l-142.73-.06c2.21-10.81,8.08-20.51,16.62-27.48C27.12,7.22,37.81,3.41,48.84,3.41h142.64ZM48.84,118.24c-11.03.02-21.69,3.85-30.21,10.83-8.54,6.97-14.38,16.7-16.58,27.48l142.46.04c12.55-.22,24.5-5.35,33.31-14.29,8.79-8.95,13.73-21,13.73-33.55s-4.92-24.6-13.71-33.55c-8.81-8.95-20.77-14.09-33.31-14.31l-142.58-.06c2.21,10.81,8.1,20.51,16.64,27.48,8.54,6.97,19.22,10.77,30.25,10.77h95.71c2.39.22,4.6,1.32,6.22,3.1,1.6,1.78,2.51,4.09,2.49,6.48,0,2.39-.91,4.7-2.55,6.46-1.62,1.76-3.83,2.85-6.22,3.04l-95.67.06h.02Z"/>
    <path class="cls-1" d="M229.55,149.78v-2.88h5.14v2.21c0,.43.16.59.59.59h4.94c.43,0,.59-.16.59-.59v-2.29c0-.49-.22-.65-.87-.81l-5.81-1.4c-2.9-.71-4.5-1.54-4.5-4.5v-3.6c0-2.94,1.4-4.31,4.31-4.31h7.37c2.9,0,4.31,1.38,4.31,4.31v2.63h-5.14v-1.98c0-.47-.16-.59-.59-.59h-4.5c-.43,0-.59.12-.59.59v2.04c0,.49.2.65.87.81l5.81,1.4c2.9.71,4.5,1.54,4.5,4.5v3.85c0,2.9-1.4,4.31-4.31,4.31h-7.82c-2.9,0-4.31-1.4-4.31-4.31l.02.02Z"/>
    <path class="cls-1" d="M248.81,132.21h12.19c2.9,0,4.31,1.38,4.31,4.31v6.18c0,2.94-1.4,4.31-4.31,4.31h-6.99v7.07h-5.2v-21.89.02ZM259.54,142.56c.43,0,.59-.12.59-.59v-4.68c0-.47-.16-.59-.59-.59h-5.53v5.87s5.53,0,5.53,0Z"/>
    <path class="cls-1" d="M267.68,149.78v-13.26c0-2.94,1.4-4.31,4.31-4.31h8.42c2.94,0,4.31,1.38,4.31,4.31v13.26c0,2.9-1.38,4.31-4.31,4.31h-8.42c-2.9,0-4.31-1.4-4.31-4.31ZM278.94,149.6c.47,0,.59-.16.59-.59v-11.7c0-.47-.12-.59-.59-.59h-5.47c-.43,0-.59.12-.59.59v11.7c0,.43.16.59.59.59h5.47Z"/>
    <path class="cls-1" d="M304.98,154.1h-5.41l-3.66-7.53h-3.04v7.53h-5.2v-21.89h12.19c2.9,0,4.31,1.38,4.31,4.31v5.47c0,2.47-.97,3.81-3,4.19l3.79,7.9.02.02ZM298.42,142.25c.43,0,.59-.12.59-.59v-4.45c0-.47-.16-.59-.59-.59h-5.53v5.63s5.53,0,5.53,0Z"/>
    <path class="cls-1" d="M312.06,136.74h-5.69v-4.52h16.6v4.52h-5.73v17.35h-5.2v-17.35h.02Z"/>
    <path class="cls-1" d="M324.98,149.78v-2.88h5.14v2.21c0,.43.16.59.59.59h4.94c.43,0,.59-.16.59-.59v-2.29c0-.49-.22-.65-.87-.81l-5.81-1.4c-2.9-.71-4.5-1.54-4.5-4.5v-3.6c0-2.94,1.4-4.31,4.31-4.31h7.37c2.9,0,4.31,1.38,4.31,4.31v2.63h-5.14v-1.98c0-.47-.16-.59-.59-.59h-4.5c-.43,0-.59.12-.59.59v2.04c0,.49.2.65.87.81l5.81,1.4c2.9.71,4.5,1.54,4.5,4.5v3.85c0,2.9-1.4,4.31-4.31,4.31h-7.82c-2.9,0-4.31-1.4-4.31-4.31l.02.02Z"/>
    <path class="cls-1" d="M344.26,132.21h12.07c2.9,0,4.31,1.38,4.31,4.31v2.69c0,1.88-.49,3.1-2.25,3.69,1.9.43,2.51,1.98,2.51,3.69v3.18c0,2.9-1.4,4.31-4.31,4.31h-12.31v-21.89l-.02.02ZM354.85,140.87c.43,0,.59-.16.59-.59v-3.16c0-.47-.16-.59-.59-.59h-5.41v4.35s5.41,0,5.41,0ZM355.11,149.78c.43,0,.59-.16.59-.59v-3.66c0-.47-.16-.59-.59-.59h-5.65v4.84s5.65,0,5.65,0Z"/>
    <path class="cls-1" d="M363.45,149.78v-13.26c0-2.94,1.4-4.31,4.31-4.31h8.42c2.94,0,4.31,1.38,4.31,4.31v13.26c0,2.9-1.38,4.31-4.31,4.31h-8.42c-2.9,0-4.31-1.4-4.31-4.31ZM374.71,149.6c.47,0,.59-.16.59-.59v-11.7c0-.47-.12-.59-.59-.59h-5.47c-.43,0-.59.12-.59.59v11.7c0,.43.16.59.59.59h5.47Z"/>
    <path class="cls-1" d="M383.23,149.78v-13.26c0-2.94,1.4-4.31,4.31-4.31h8.42c2.94,0,4.31,1.38,4.31,4.31v13.26c0,2.9-1.38,4.31-4.31,4.31h-8.42c-2.9,0-4.31-1.4-4.31-4.31ZM394.49,149.6c.47,0,.59-.16.59-.59v-11.7c0-.47-.12-.59-.59-.59h-5.47c-.43,0-.59.12-.59.59v11.7c0,.43.16.59.59.59h5.47Z"/>
    <path class="cls-1" d="M415.97,154.1l-4.45-9.01-3.18,4.19v4.82h-5.1v-21.89h5.1v10.1l7.07-10.1h5.85l-6.44,8.5,6.78,13.38h-5.63v.02Z"/>
    <path class="cls-1" d="M433.61,144.62h-4.13v-4.19h4.13v-3.77h4.25v3.77h4.13v4.19h-4.13v3.77h-4.25v-3.77Z"/>
    <path class="cls-1" d="M451.43,149.78v-13.26c0-2.94,1.44-4.31,4.35-4.31h7.82c2.9,0,4.29,1.38,4.29,4.31v3.81h-5.2v-3.04c0-.47-.16-.59-.59-.59h-4.88c-.43,0-.59.12-.59.59v11.7c0,.43.16.59.59.59h4.88c.43,0,.59-.16.59-.59v-3.06h5.2v3.85c0,2.9-1.4,4.31-4.31,4.31h-7.82c-2.9,0-4.31-1.4-4.31-4.31h-.02Z"/>
    <path class="cls-1" d="M482.83,149.46h-6.97l-1.24,4.62h-5.37l6.62-21.89h7.15l6.66,21.89h-5.59l-1.24-4.62h0ZM481.64,145.05l-2.29-8.58-2.31,8.58h4.6Z"/>
    <path class="cls-1" d="M491.15,149.78v-2.88h5.14v2.21c0,.43.16.59.59.59h4.94c.43,0,.59-.16.59-.59v-2.29c0-.49-.22-.65-.87-.81l-5.81-1.4c-2.9-.71-4.5-1.54-4.5-4.5v-3.6c0-2.94,1.4-4.31,4.31-4.31h7.37c2.9,0,4.31,1.38,4.31,4.31v2.63h-5.14v-1.98c0-.47-.16-.59-.59-.59h-4.5c-.43,0-.59.12-.59.59v2.04c0,.49.2.65.87.81l5.81,1.4c2.9.71,4.5,1.54,4.5,4.5v3.85c0,2.9-1.4,4.31-4.31,4.31h-7.82c-2.9,0-4.31-1.4-4.31-4.31l.02.02Z"/>
    <path class="cls-1" d="M510.41,132.21h5.2v21.89h-5.2v-21.89Z"/>
    <path class="cls-1" d="M518.73,132.21h5.28l7.73,12.84v-12.84h5.04v21.89h-4.82l-8.2-13.57v13.57h-5.04v-21.89h.02Z"/>
    <path class="cls-1" d="M539.75,149.78v-13.26c0-2.94,1.4-4.31,4.31-4.31h8.42c2.94,0,4.31,1.38,4.31,4.31v13.26c0,2.9-1.38,4.31-4.31,4.31h-8.42c-2.9,0-4.31-1.4-4.31-4.31ZM551.02,149.6c.47,0,.59-.16.59-.59v-11.7c0-.47-.12-.59-.59-.59h-5.47c-.43,0-.59.12-.59.59v11.7c0,.43.16.59.59.59h5.47Z"/>
    <path class="cls-2" d="M229.53,58.3v-8.58h15.29v6.62c0,1.3.47,1.78,1.78,1.78h14.74c1.3,0,1.78-.47,1.78-1.78v-6.8c0-1.48-.65-1.96-2.61-2.43l-17.35-4.19c-8.67-2.15-13.42-4.56-13.42-13.42v-10.73c0-8.77,4.19-12.86,12.86-12.86h21.99c8.67,0,12.86,4.11,12.86,12.86v7.82h-15.29v-5.87c0-1.4-.47-1.78-1.78-1.78h-13.42c-1.3,0-1.78.38-1.78,1.78v6.07c0,1.48.55,1.96,2.61,2.43l17.35,4.19c8.67,2.13,13.42,4.56,13.42,13.42v11.46c0,8.67-4.19,12.86-12.86,12.86h-23.3c-8.67,0-12.86-4.19-12.86-12.86h-.02Z"/>
    <path class="cls-2" d="M285.9,5.92h36.36c8.67,0,12.86,4.11,12.86,12.86v18.45c0,8.75-4.19,12.86-12.86,12.86h-20.88v21.06h-15.47V5.92ZM317.87,36.78c1.3,0,1.78-.38,1.78-1.78v-13.99c0-1.4-.47-1.78-1.78-1.78h-16.5v17.53h16.5v.02Z"/>
    <path class="cls-2" d="M341.14,58.3V18.78c0-8.77,4.19-12.86,12.86-12.86h25.07c8.77,0,12.86,4.11,12.86,12.86v39.52c0,8.67-4.11,12.86-12.86,12.86h-25.07c-8.67,0-12.86-4.19-12.86-12.86ZM374.71,57.74c1.4,0,1.78-.47,1.78-1.78V21.11c0-1.4-.38-1.78-1.78-1.78h-16.32c-1.3,0-1.78.38-1.78,1.78v34.87c0,1.3.47,1.78,1.78,1.78h16.32v-.02Z"/>
    <path class="cls-2" d="M451.3,71.16h-16.12l-10.91-22.47h-9.05v22.47h-15.47V5.92h36.36c8.67,0,12.86,4.11,12.86,12.86v16.32c0,7.37-2.88,11.38-8.95,12.49l11.28,23.59v-.02ZM431.71,35.83c1.3,0,1.78-.38,1.78-1.78v-13.24c0-1.4-.47-1.78-1.78-1.78h-16.5v16.77h16.5v.02Z"/>
    <path class="cls-2" d="M471.43,19.43h-16.97V5.92h49.49v13.51h-17.05v51.75h-15.47V19.43Z"/>
    <path class="cls-2" d="M509.01,58.3v-8.58h15.29v6.62c0,1.3.47,1.78,1.78,1.78h14.74c1.3,0,1.78-.47,1.78-1.78v-6.8c0-1.48-.65-1.96-2.61-2.43l-17.35-4.19c-8.67-2.15-13.42-4.56-13.42-13.42v-10.73c0-8.77,4.19-12.86,12.86-12.86h21.99c8.67,0,12.86,4.11,12.86,12.86v7.82h-15.29v-5.87c0-1.4-.47-1.78-1.78-1.78h-13.42c-1.3,0-1.78.38-1.78,1.78v6.07c0,1.48.55,1.96,2.61,2.43l17.35,4.19c8.67,2.13,13.42,4.56,13.42,13.42v11.46c0,8.67-4.19,12.86-12.86,12.86h-23.3c-8.67,0-12.86-4.19-12.86-12.86h-.02Z"/>
    <path class="cls-2" d="M229.63,82.72h9.01v37.98h-9.01v-37.98Z"/>
    <path class="cls-2" d="M243.83,82.72h9.17l13.4,22.29v-22.29h8.73v37.98h-8.36l-14.21-23.53v23.53h-8.73v-37.98Z"/>
    <path class="cls-2" d="M288.94,90.58h-9.88v-7.86h28.81v7.86h-9.92v30.11h-9.01v-30.11Z"/>
    <path class="cls-2" d="M311.74,82.72h26.14v7.8h-17.13v6.9h13.71v7.71h-13.71v7.77h17.13v7.8h-26.14v-37.98Z"/>
    <path class="cls-2" d="M372.34,120.69h-9.39l-6.34-13.08h-5.26v13.08h-9.01v-37.98h21.16c5.04,0,7.49,2.39,7.49,7.49v9.48c0,4.29-1.68,6.62-5.2,7.27l6.56,13.73h-.02ZM360.96,100.14c.75,0,1.03-.22,1.03-1.03v-7.71c0-.81-.28-1.03-1.03-1.03h-9.6v9.76s9.6,0,9.6,0Z"/>
    <path class="cls-2" d="M398.46,112.65h-12.09l-2.17,8.02h-9.33l11.5-37.98h12.43l11.56,37.98h-9.7l-2.17-8.02h-.02ZM396.41,105l-3.95-14.86-4.01,14.86h7.98-.02Z"/>
    <path class="cls-2" d="M412.87,113.2v-23c0-5.1,2.49-7.49,7.55-7.49h13.55c5.04,0,7.43,2.39,7.43,7.49v6.62h-9.01v-5.26c0-.81-.28-1.03-1.03-1.03h-8.46c-.75,0-1.03.22-1.03,1.03v20.29c0,.75.28,1.03,1.03,1.03h8.46c.75,0,1.03-.28,1.03-1.03v-5.32h9.01v6.68c0,5.04-2.45,7.49-7.49,7.49h-13.55c-5.04,0-7.49-2.45-7.49-7.49v-.02Z"/>
    <path class="cls-2" d="M454.44,90.58h-9.88v-7.86h28.81v7.86h-9.92v30.11h-9.01v-30.11Z"/>
    <path class="cls-2" d="M477.24,82.72h9.01v37.98h-9.01v-37.98Z"/>
    <path class="cls-2" d="M491.07,113.2v-23c0-5.1,2.45-7.49,7.49-7.49h14.58c5.1,0,7.49,2.39,7.49,7.49v23c0,5.04-2.39,7.49-7.49,7.49h-14.58c-5.04,0-7.49-2.45-7.49-7.49ZM510.59,112.89c.81,0,1.03-.28,1.03-1.03v-20.29c0-.81-.22-1.03-1.03-1.03h-9.48c-.75,0-1.03.22-1.03,1.03v20.29c0,.75.28,1.03,1.03,1.03h9.48Z"/>
    <path class="cls-2" d="M525.55,82.72h9.17l13.4,22.29v-22.29h8.73v37.98h-8.36l-14.21-23.53v23.53h-8.73v-37.98Z"/>
  </g>
</svg>