<svg version="1.2" xmlns="http://www.w3.org/2000/svg" viewBox="0 0 1542 781" width="1542" height="781">
	<title>DraftKings_logo-svg</title>
	<style>
		.s0 { fill: #61b510 } 
		.s1 { fill: #f7760d } 
		.s2 { fill: #000000 } 
	</style>
	<g id="Layer">
		<g id="Layer">
			<path id="Layer" fill-rule="evenodd" class="s0" d="m1293.1 363.9q-0.2-0.9-0.5-1.7-0.3-0.8-0.7-1.7-0.4-0.8-0.8-1.6-0.5-0.7-1-1.5-0.4-0.7-1-1.5-0.5-0.7-1-1.4-0.6-0.7-1.1-1.4-0.6-0.7-1.2-1.4-1.6-1.8-3.4-3.4-1.7-1.7-3.7-3.2-1.9-1.5-3.9-2.8-2.1-1.3-4.3-2.4-2.2-1.2-4.4-2.1-2.3-1-4.6-1.9-2.3-0.9-4.7-1.6-2.3-0.7-4.7-1.3-2.4-0.6-4.9-1.1-2.5-0.5-4.9-0.9-2.5-0.4-5-0.7-2.5-0.3-5-0.5-10.2-0.8-19.6-0.8l-40.7-0.2v58.1q12.5 0 21.7-0.7 2.1-0.1 4.2-0.4 2.1-0.3 4.2-0.8 2.1-0.5 4.1-1.2 2-0.7 3.9-1.5 1.9-0.9 3.6-2 1.8-1.1 3.4-2.4 1.6-1.2 3.1-2.7 1.5-1.4 2.8-3 1.7-2.2 3.2-4.4 1.6-2.3 3-4.7 1.4-2.3 2.6-4.8 1.2-2.4 2.3-5v96.7q-0.5-2.7-1.4-5.3-0.8-2.7-1.9-5.2-1.1-2.6-2.5-4.9-1.4-2.4-3-4.7-1.4-1.7-3-3.2-1.5-1.6-3.3-2.9-1.7-1.3-3.6-2.4-1.9-1.2-3.9-2-2.2-0.9-4.4-1.6-2.2-0.7-4.5-1.3-2.2-0.5-4.5-0.8-2.3-0.3-4.7-0.4-10-0.7-21.4-0.7v47.5q0.1 2 0.1 3.9 0.1 1.9 0.3 3.8 0.2 2 0.5 3.9 0.3 1.9 0.7 3.8 0.3 1.8 0.8 3.6 0.5 1.8 1.1 3.6 0.6 1.8 1.4 3.5 0.8 1.7 1.7 3.4 0.8 1.6 1.9 3.2 1 1.5 2.1 2.9 1.2 1.5 2.5 2.8 1.3 1.4 2.7 2.6 1.5 1.3 3.1 2.4 1.7 1.1 3.5 2 1.7 0.9 3.6 1.6 1.9 0.7 3.8 1.1h-132.9q0 0 0 0h-152.7q1.7-0.8 7.4-3.3 1.5-0.7 3.1-1.6 1.5-0.8 2.9-1.7 1.5-1 2.8-2 1.4-1.1 2.7-2.2 1.5-1.3 2.8-2.8 1.4-1.4 2.6-3 1.2-1.5 2.3-3.2 1-1.7 1.9-3.4 1-2.1 1.5-4.4 0.6-2.2 0.8-4.5 0.2-2.3-0.1-4.6-0.2-2.3-0.9-4.5-0.5-1.8-1.7-5.5-1.2-3.7-2.7-7.7-1.5-4-2.9-7.8-1.3-3.8-2.1-5.9h-64.2c-0.6 1.5-1.5 3.8-2.7 6.8q-1.9 4.5-3.7 9.4-1.7 4.9-3 9.7-0.2 0.9-0.4 1.8-0.2 0.9-0.4 1.8-0.1 0.9-0.2 1.9-0.1 0.9-0.2 1.9 0.1 3 0.6 5.9 0.5 3 1.5 5.9 1 2.8 2.4 5.5 1.4 2.7 3.2 5.1 1.9 2.4 4.2 4.4 2.3 2 4.9 3.6 2.6 1.6 5.5 2.7 2.9 1.1 5.9 1.7h-102.7q0.2 0 0.4 0h-74.3c-33.8 0-45.6-18.1-79.5-95.4q-5.6 0.1-11.6 0.1h-8.7q0 14.2-0.3 29 0 3.6 0 7.3 0 3.6 0.2 7.3 0.1 3.6 0.3 7.2 0.3 3.6 0.6 7.3 0.2 2.2 0.5 4.4 0.4 2.2 0.9 4.3 0.5 2.2 1.2 4.3 0.7 2.1 1.6 4.1 0.7 1.5 1.4 2.9 0.8 1.4 1.7 2.7 0.9 1.4 1.9 2.6 1.1 1.2 2.2 2.4 0.9 0.9 1.9 1.8 1 0.8 2.1 1.6 1.1 0.8 2.2 1.4 1.1 0.7 2.3 1.3 1 0.5 2.1 0.9 1 0.5 2 0.9 1 0.4 2.1 0.8 1 0.4 2.1 0.8h-128.7q1.8-0.8 3.4-1.7 1.7-0.9 3.2-2 1.6-1 3-2.2 1.4-1.2 2.8-2.5 1.3-1.4 2.5-2.8 1.2-1.4 2.3-2.9 1.1-1.4 2-3 1-1.6 1.8-3.2 0.9-1.7 1.6-3.4 0.8-1.7 1.4-3.4 0.7-1.7 1.2-3.5 0.5-1.8 1-3.6 0.4-1.7 0.7-3.5 0.4-1.7 0.6-3.5 0.2-1.8 0.3-3.6 0.1-1.7 0.1-3.5v-108.3q0-7.1-0.2-14 0-2.8-0.2-5.6-0.3-2.9-0.9-5.6-0.6-2.8-1.5-5.5-0.8-2.7-2-5.2-0.9-1.8-1.9-3.5-1.1-1.6-2.3-3.2-1.2-1.5-2.6-2.9-1.3-1.4-2.9-2.7-1.5-1.1-3.2-2.1-1.6-1-3.4-1.8-1.8-0.8-3.6-1.5-1.8-0.6-3.7-1.1h149q8.3 0 18.2 0.8 2.5 0.2 4.9 0.5 2.5 0.3 4.9 0.7 2.4 0.4 4.8 0.9 2.4 0.5 4.8 1.1 2.3 0.6 4.6 1.3 2.3 0.7 4.6 1.6 2.2 0.8 4.4 1.8 2.2 1 4.3 2.2 2 1 3.9 2.3 1.9 1.3 3.7 2.8 1.7 1.5 3.3 3.2 1.5 1.7 2.9 3.5 0.8 1.1 1.6 2.3 0.8 1.1 1.5 2.3 0.7 1.2 1.4 2.4 0.7 1.2 1.3 2.4 1 2 1.8 4.1 0.8 2.2 1.4 4.3 0.6 2.2 1 4.4 0.3 2.3 0.5 4.5 0.5 5.1-0.1 10.2-0.5 5.1-2.1 10-1.5 4.9-4 9.4-2.5 4.5-5.9 8.5c-0.2 0.3-0.5 0.6-0.7 0.9q-0.7 0.8-1.4 1.7-0.7 0.8-1.4 1.6-0.7 0.8-1.5 1.6-0.8 0.8-1.5 1.5l-1.4 1.4q-1.7 1.5-3.5 2.9-1.8 1.3-3.7 2.5-1.9 1.3-3.9 2.3-2 1.1-4 2c20.1 42.2 48.1 92.8 72 103.4q2.8-1.6 7.4-4.6 1.2-0.8 2.5-1.6 1.2-0.8 2.4-1.7 1.1-0.9 2.3-1.8 1.2-0.8 2.3-1.8 1.5-1.4 2.9-3 1.3-1.5 2.6-3.2 1.2-1.6 2.3-3.4 1.1-1.7 2.1-3.6 5.3-9.2 10-19.8 4.7-10.5 8.5-20.3 3.8-9.8 5.7-14.8l23-57.8c0.6-1.5 1.2-3 1.8-4.7q2.9-8 8.3-21.8 0.5-1.3 1-2.7 0.5-1.4 1-2.9 0.4-1.4 0.8-2.8 0.4-1.5 0.7-2.9 0.3-1.4 0.5-2.9 0.2-1.4 0.2-2.9 0-1.5-0.2-2.9-0.2-1.5-0.5-2.9-0.4-1.6-1-3.1-0.6-1.5-1.4-2.9-0.8-1.5-1.7-2.8-1-1.3-2.1-2.5-1-1-2-1.9-1.1-0.9-2.2-1.8-1.1-0.8-2.3-1.6-1.1-0.8-2.3-1.5-1.4-0.7-2.8-1.4-1.4-0.6-2.8-1.2-1.5-0.5-3-1-1.4-0.4-3-0.8h127.1l29 82.7 15 43.5 11.1 32.2q0.9 2.3 1.8 4.6 1 2.2 2 4.5 1 2.2 2.1 4.4 1.2 2.3 2.4 4.4 1.1 2.1 2.3 4 1.2 2 2.5 3.9 1.4 2 2.8 3.8 1.4 1.9 2.9 3.6 1.6 1.9 3.3 3.6 1.8 1.8 3.6 3.4 1.8 1.7 3.8 3.2 1.9 1.5 3.9 2.9 0.8 0.5 1.6 1.1 0.8 0.5 1.6 1 0.8 0.5 1.6 1 0.8 0.4 1.6 0.9 0.8 0.4 1.7 0.8 0.9 0.4 1.8 0.8 0.9 0.3 1.8 0.6 0.8 0.2 1.6 0.3 1.5-0.7 2.9-1.6 1.5-0.9 2.9-1.9 1.4-1 2.7-2.1 1.4-1.1 2.6-2.4 1.3-1.2 2.4-2.5 1.2-1.2 2.3-2.6 1.1-1.4 2.1-2.8 1-1.4 1.9-2.9 1.7-2.8 3.1-5.8 1.4-3 2.5-6.1 1-3.1 1.7-6.3 0.7-3.2 1.1-6.5v-123.5q-0.1-1.4-0.2-2.7-0.2-1.4-0.4-2.7-0.2-1.4-0.5-2.7-0.2-1.3-0.6-2.7-0.4-1.8-1-3.5-0.5-1.8-1.2-3.6-0.6-1.7-1.4-3.4-0.8-1.7-1.6-3.3-0.9-1.7-1.9-3.2-1-1.6-2.1-3-1.1-1.5-2.3-2.9-1.2-1.4-2.5-2.7-1.4-1.3-2.8-2.4-1.5-1.2-3.1-2.2-1.6-0.9-3.3-1.7-1.7-0.9-3.4-1.5h224.2zm248.9-64.9v79.2q-0.6-3.4-1.6-6.6-1.1-3.2-2.6-6.3-1.5-3-3.4-5.8-2-2.8-4.3-5.4-2.1-2.1-4.4-4.1-2.3-2-4.8-3.8-2.5-1.7-5.1-3.2-2.7-1.5-5.5-2.7-2.6-1.1-5.2-2.1-2.7-1-5.4-1.7-2.7-0.8-5.5-1.5-2.8-0.6-5.5-1.1-2.2-0.3-4.4-0.6-2.2-0.3-4.4-0.5-2.2-0.3-4.4-0.4-2.2-0.1-4.5-0.2h-7v128.6q0 2.1 0.1 4.2 0.2 2 0.5 4 0.3 2.1 0.7 4.1 0.4 2 1 4 0.6 2 1.3 3.9 0.7 1.9 1.6 3.8 0.8 1.9 1.9 3.7 1 1.8 2.1 3.5 1.2 1.7 2.4 3.3 1.3 1.6 2.8 3.1 1.4 1.5 3 2.8 1.5 1.4 3.2 2.6 1.7 1.2 3.6 2.2 1.9 1.1 3.9 1.9 1.9 0.8 4 1.4 2.1 0.6 4.2 0.9h-142.2q1.9-0.5 3.8-1.1 1.8-0.7 3.6-1.5 1.8-0.9 3.5-1.8 1.7-1 3.3-2.2 1.6-1.1 3.1-2.3 1.5-1.2 2.8-2.5 1.4-1.4 2.7-2.8 1.2-1.4 2.4-2.9 1.1-1.6 2.2-3.2 1-1.6 1.9-3.3 0.9-1.7 1.6-3.4 0.7-1.8 1.3-3.6 0.4-1.2 0.8-2.5 0.3-1.3 0.6-2.6 0.3-1.3 0.5-2.6 0.2-1.3 0.3-2.6v-137.1q-3.2-0.2-6.3-0.3-3.2-0.1-6.4 0.1-3.2 0.1-6.3 0.4-3.2 0.4-6.3 0.9-3.1 0.5-6.2 1.2-3.1 0.8-6 1.7-3 1-5.9 2.2-2.9 1.2-5.7 2.7-2.8 1.4-5.3 3-2.6 1.7-4.9 3.6-2.4 1.9-4.6 4-2.1 2.1-4.1 4.4-2 2.5-3.6 5.2-1.7 2.7-3 5.6-1.2 2.9-2.1 5.9-0.9 3.1-1.3 6.2v-80zm-616 118l-23.8-68.7-22.8 68.7zm-298.3-30.6q2.3 0.1 4.5 0 2.3-0.1 4.5-0.3 2.3-0.2 4.5-0.6 2.2-0.3 4.4-0.8 1.9-0.5 3.8-1.2 1.8-0.7 3.5-1.7 1.7-1 3.2-2.3 1.6-1.2 2.9-2.6 1.4-1.9 2.5-4 1.1-2.1 1.8-4.4 0.7-2.3 0.9-4.6 0.3-2.4 0.1-4.7 0.2-2.5 0-5-0.3-2.5-0.9-5-0.6-2.4-1.6-4.7-1-2.4-2.4-4.5-1.2-1.5-2.6-2.8-1.4-1.3-3.1-2.4-1.6-1.1-3.4-1.9-1.7-0.8-3.6-1.3-2.2-0.6-4.4-1-2.2-0.4-4.4-0.7-2.2-0.2-4.5-0.2-2.2-0.1-4.5 0-9.9 0.4-19.9 0.4v56q9 0 18.7 0.3z"/>
		</g>
		<path id="Layer" class="s1" d="m559.1 52.1q1.8-0.6 3.6-1.1 1.8-0.5 3.7-0.9 1.8-0.4 3.7-0.7-4.8 10.2-9.2 20.5-4.5 10.3-8.6 20.7-4.1 10.5-7.9 21-3.7 10.6-7.2 21.3-9.6 30-16.6 60.8c-6.4 28.6-14.8 81.1-15.8 83.8q-1.4 4.1-3.6 7.9-2.2 3.8-5.1 7.1-2.9 3.3-6.4 6-3.5 2.6-7.5 4.6-0.5 0.2-1.1 0.2-0.5 0-1-0.2-0.6-0.2-1-0.5-0.4-0.3-0.7-0.8c-0.8-1 0.7-2.6 1.4-3.5q2.1-2.3 3.6-5.1 1.5-2.7 2.2-5.8 0.7-3 0.7-6.1-0.1-3.1-0.9-6.2c-4-20-74-22.6-161-1.1-87.1 21.6-146.6 56.6-140.3 76q0.8 3.1 2.3 5.8 1.5 2.8 3.6 5.1 2.1 2.3 4.8 4 2.6 1.8 5.7 2.8c1 0.5 3.1 1.2 2.9 2.4q0 0.5-0.2 1-0.2 0.5-0.6 0.9-0.4 0.4-0.9 0.7-0.5 0.2-1 0.3-4.5 0.1-8.9-0.6-4.4-0.7-8.6-2.2-4.1-1.5-7.9-3.8-3.8-2.3-7.1-5.3c0 0-33.8-44.5-53.5-66.5-14.3-15.9-29.2-31.3-44.7-45.8q-8.2-7.8-16.8-15.4-8.5-7.5-17.3-14.8-8.7-7.3-17.7-14.3-9-7-18.2-13.7 1.8-0.8 3.6-1.5 1.8-0.6 3.6-1.2 1.8-0.5 3.7-0.9 1.9-0.4 3.8-0.7c22-1.7 42.1 14.8 53 24.1h0.1c8.2-9.3 24.5-26.5 44.3-28.9 0.5 2.3 0.9 6.9 1.1 9.4 0.3 3.9 0.2 7.9-0.4 11.8-0.5 3.9-1.5 7.7-2.9 11.4-1.3 3.8-3.1 7.3-5.3 10.7-2.1 3.3-4.6 6.4-7.5 9.3q6 3.1 12.2 5.5 6.3 2.4 12.8 4.1 6.5 1.6 13.2 2.5 6.7 0.9 13.4 1 1.6-0.1 3.1-0.4 1.5-0.2 3.1-0.5 1.5-0.4 3-0.8 1.5-0.5 2.9-1.1c4.1-1.5 7.8-3.6 11.2-6.3 3.4-2.6 6.4-5.7 8.9-9.2 2.4-3.5 4.3-7.4 5.6-11.4 1.3-4.1 2-8.3 2-12.5 4.5 2.8 9.5 4.7 14.7 5.8 5.3 1 10.7 1.1 16 0.3 5.2-0.9 10.3-2.7 14.9-5.3 4.6-2.7 8.7-6.1 12-10.2q0.8-1.2 1.5-2.4 0.7-1.1 1.4-2.3 0.7-1.2 1.3-2.4 0.7-1.3 1.3-2.5 1-2 2-4.1c0.1-0.5 0.3-1.1 0.5-1.6q0 0.1 0 0.3 3.5-8 5.7-16.3 2.2-8.4 3-17 0.8-8.6 0.2-17.2-0.6-8.6-2.6-17-0.4 0.2-0.9 0.4c-4.1 1.6-8.3 2.8-12.7 3.5-4.3 0.7-8.8 0.9-13.2 0.6-4.4-0.3-8.7-1.1-12.9-2.4-4.2-1.3-8.3-3-12.1-5.2q-0.6-0.4-1.2-0.7-0.6-0.4-1.2-0.8-0.6-0.4-1.2-0.8-0.6-0.3-1.2-0.8 0.3-0.6 0.6-1.2 0.3-0.7 0.7-1.3 0.3-0.6 0.7-1.2 0.3-0.6 0.7-1.2 3-5 7-9.3 4-4.3 8.8-7.7 4.8-3.4 10.2-5.8 5.4-2.3 11.2-3.6 2.7-0.5 5.5-0.8c-10.2-17-13.2-49.5-2.3-67.6q0.4-0.8 0.9-1.5 0.5-0.7 1-1.5 0.5-0.7 1-1.4 0.5-0.7 1.1-1.4l1.1-1.4 1.7 0.7q0.9 0.4 1.8 0.8 0.9 0.4 1.8 0.8 1 0.5 1.9 0.9 0.9 0.5 1.7 1c18.6 10.8 33.7 40.3 33.1 59.9q2.6-1 5.2-1.8c4.2-1.2 8.6-2 13-2.2 4.5-0.3 8.9 0 13.3 0.7 4.3 0.8 8.6 2 12.7 3.7 4 1.7 7.9 3.9 11.5 6.5q-0.4 0.6-0.7 1.2-0.3 0.7-0.6 1.3-0.4 0.6-0.7 1.2-0.4 0.6-0.7 1.2c-2.3 3.7-5 7.1-8 10.2-3.1 3.1-6.5 5.9-10.2 8.2-3.7 2.3-7.7 4.2-11.9 5.7-4.1 1.4-8.5 2.4-12.8 2.9q-0.5 0-1 0.1c1.8 6 4 11.8 6.8 17.4 2.8 5.7 6.1 11 9.8 16.1 3.7 5.1 7.9 9.9 12.4 14.3 4.6 4.3 9.5 8.3 14.8 11.9 2.5 1.7 5.1 3.3 7.7 4.8 4.9 2 10.1 3.1 15.5 3.3 5.3 0.2 10.6-0.6 15.6-2.3 5.1-1.6 9.7-4.2 13.8-7.5 4.1-3.4 7.6-7.4 10.2-11.9 2 3.7 4.7 7.1 7.8 10.1 3.1 2.9 6.6 5.4 10.5 7.4 3.8 1.9 8 3.3 12.2 4.1 4.3 0.7 8.7 0.9 13 0.4q2.6-0.2 5.1-0.7 2.5-0.5 5-1.3 2.4-0.7 4.8-1.8 2.3-1.1 4.5-2.5 5-3.1 9.6-6.8 4.6-3.6 8.8-7.7 4.2-4.2 8-8.7 3.7-4.5 6.9-9.4c-3.9-1.1-7.6-2.7-11.1-4.6-3.6-1.9-6.9-4.2-9.9-6.8-3.1-2.6-5.8-5.5-8.2-8.7-2.5-3.2-4.5-6.6-6.2-10.2q-0.4-0.8-0.7-1.7-0.4-0.8-0.7-1.7-0.4-0.8-0.7-1.7-0.3-0.8-0.5-1.7c4.4-1.7 9-2.9 13.7-3.5 4.7-0.6 9.5-0.6 14.2-0.1 4.7 0.6 9.3 1.7 13.8 3.4 4.4 1.6 8.6 3.8 12.5 6.5 0.3-5.1 1.3-10.1 3-14.9 1.6-4.8 4-9.4 6.9-13.6 2.9-4.2 6.5-8 10.4-11.3 4-3.3 8.5-6 13.2-8.1q1.7-0.8 3.5-1.4z"/>
		<path id="Layer" class="s0" d="m248 317q17.7-7.3 35.7-13.5 18.1-6.1 36.6-11.1 18.4-5 37.2-8.7 18.8-3.7 37.8-6.2c12.6-1.7 98.8 9.5 98.8 122.6 0 113.2-82.5 177.7-194.9 177.7-112.3 0-171.5-48.2-171.5-99.7 0-51.4 37.9-59.6 55.5-59.6 17.6 0 49.5 15.5 49.5 55.8 0 0-31.7-7.6-31.7 19.2 0 26.8 37.5 43.5 89 43.5 51.4 0 124.1-22 124.1-120 0-104.5-49.6-109.1-84.1-109.1v179.2c0.1 2.2 0.7 4.3 1.7 6.3 1 2 2.3 3.7 4 5.2 1.7 1.5 3.6 2.6 5.7 3.3 2.2 0.8 4.4 1.1 6.6 1 2.3-0.1-18.1 14.9-63 14.9-44.8 0-57.6-14-57.6-14 0 0 21.2 0 21.2-18.2 0-18.3-0.6-168.6-0.6-168.6z"/>
		<path id="Layer" class="s2" d="m1493.5 696.1q0.6 2.3 1.1 4.5 0.6 2.3 0.9 4.6 0.4 2.3 0.7 4.7 0.2 4.2-0.2 8.5-0.4 4.3-1.4 8.4-1 4.2-2.6 8.2-1.5 4-3.7 7.7-1.9 3.3-4.2 6.3-2.3 3-5 5.7-2.6 2.8-5.6 5.2-2.9 2.4-6.2 4.5-3.3 2.1-6.8 3.9-3.4 1.8-7.1 3.3-3.6 1.5-7.4 2.7-3.8 1.2-7.6 2-4 0.9-8 1.5-4 0.7-8 1.1-4 0.5-8 0.7-4.1 0.2-8.1 0.3-2.4 0-4.8-0.1-2.4-0.1-4.8-0.2-2.4-0.1-4.8-0.3-2.3-0.2-4.7-0.5-2.4-0.3-4.8-0.6-2.3-0.4-4.7-0.8-2.3-0.4-4.7-1-2.3-0.5-4.6-1-2.2-0.6-4.4-1.2-2.1-0.5-4.3-1-2.2-0.5-4.4-0.9-2.2-0.4-4.4-0.8-2.2-0.3-4.4-0.6-2.2-0.3-4.4-0.4-2.2-0.2-4.4-0.3-2.2 0-4.4 0-1.5 0-2.9 0.1-1.4 0.1-2.9 0.2-1.4 0.2-2.9 0.3-1.4 0.2-2.8 0.5 0 0 0-0.1 0 0-0.1 0 0 0 0 0 0 0 0 0-4.4 0.2-8.8 1-4.3 0.7-8.5 2-4.3 1.2-8.3 2.9-4.1 1.7-7.9 3.9v-92.3q1.8 2.8 3.8 5.4 2 2.7 4.2 5.2 2.1 2.5 4.4 4.9 2.3 2.4 4.8 4.6 2.3 2.1 4.7 4.1 2.4 2 4.8 3.9 2.5 1.9 5 3.8 2.5 1.8 5.1 3.5 3.9 2.5 8 4.8 4 2.3 8.2 4.3 4.2 2.1 8.5 3.9 4.3 1.8 8.6 3.4 2.3 0.7 4.5 1.4 2.3 0.7 4.5 1.3 2.3 0.6 4.6 1.1 2.3 0.5 4.6 1 2.5 0.5 5.1 0.8 2.6 0.4 5.2 0.6 2.6 0.2 5.2 0.2 2.6 0.1 5.2-0.1 2.4-0.1 4.8-0.4 2.3-0.4 4.6-1 2.3-0.6 4.6-1.4 2.2-0.8 4.3-1.9 2.1-1.1 3.8-2.6 1.8-1.6 3.2-3.4 1.4-1.8 2.4-3.9 0.9-2.1 1.4-4.4 0.4-1.3 0.5-2.6 0.1-1.4-0.2-2.7-0.3-1.4-0.9-2.6-0.6-1.2-1.5-2.3-1.1-1.2-2.4-2.4-1.2-1.1-2.5-2.2-1.3-1-2.8-1.9-1.4-0.9-2.9-1.6-1.9-1-3.8-1.9-1.9-0.8-3.9-1.6-2-0.7-4-1.4-2-0.7-4-1.2-4.5-1.3-8.9-2.2l-0.2-0.1c-0.5-0.1-1-0.2-1.6-0.3-28.6-6.4-53.4-12.7-71-25.9q-1.3-1-2.5-2-0.9-0.7-1.7-1.3c-0.1-0.2-0.3-0.3-0.4-0.5h-0.1q-1.8-1.6-3.5-3.3-1.7-1.7-3.2-3.6-1.6-1.8-3-3.7-1.4-2-2.6-4-1.8-3-3-6.3-1.3-3.2-2.1-6.6-0.8-3.4-1.1-6.8-0.4-3.5-0.2-7c-0.2-5.1 0.3-10.2 1.4-15.2 1.1-5 2.8-9.8 5.2-14.4 2.3-4.6 5.2-8.9 8.6-12.8 3.4-3.9 7.3-7.3 11.6-10.3q3.2-2.1 6.5-4.1 3.3-1.9 6.8-3.5 3.5-1.6 7.1-2.9 3.6-1.3 7.4-2.3 3.9-1 7.9-1.8 4-0.8 8-1.3 4-0.6 8.1-0.8 4-0.3 8.1-0.3 2.9-0.1 5.9 0 2.9 0 5.9 0.2 2.9 0.2 5.9 0.5 2.9 0.3 5.8 0.8c7.1 1.1 14 2.2 20.9 3.3q2.5 0.3 5 0.6 2.5 0.2 5.1 0.4 2.5 0.2 5 0.4 2.5 0.1 5.1 0.1c24.1 0 30.2-14.7 30.2-14.7v77.3q-5.5-5-9.1-8.5-3.7-3.6-6.6-6.5-3-2.9-5.7-5.6-0.7-0.6-1.3-1.2-0.7-0.6-1.4-1.2-0.7-0.6-1.3-1.2-0.7-0.6-1.4-1.1-1.5-1.1-3-2.1-1.5-1.1-3.1-2-1.6-0.9-3.2-1.7-1.7-0.9-3.3-1.6-2.4-1-4.8-1.9-2.4-0.9-4.8-1.7-2.4-0.7-4.9-1.4-2.4-0.7-4.9-1.3-2.2-0.6-4.4-1.1-2.2-0.5-4.4-0.8-2.2-0.3-4.5-0.5-2.2-0.1-4.5-0.2-2.1 0-4.3 0.1-2.2 0.1-4.3 0.4-2.2 0.2-4.3 0.6-2.1 0.4-4.2 0.9-2 0.5-3.9 1.2-1.9 0.6-3.8 1.4-1.8 0.8-3.6 1.7-1.8 0.9-3.5 1.9-1.6 1-3.1 2.1-1.5 1.2-2.8 2.4-1.4 1.3-2.6 2.7-1.2 1.5-2.2 3-0.7 1.1-1.1 2.4-0.4 1.2-0.6 2.5-0.1 1.3 0 2.6 0.2 1.3 0.6 2.5 0.4 1.6 1.1 3 0.6 1.5 1.5 2.8 0.8 1.4 1.9 2.6 1 1.2 2.3 2.2 1.4 1.1 2.8 2.2 1.5 1 3.1 2 1.5 0.9 3.1 1.8 1.6 0.8 3.3 1.5 1.7 0.8 3.5 1.5 1.2 0.4 2.4 0.8 1.2 0.3 2.5 0.7 1.2 0.4 2.4 0.7 1.3 0.3 2.5 0.6c21 4.8 47.2 4.8 72.7 18.1q1.4 0.7 2.7 1.4 1.3 0.8 2.6 1.5 1.3 0.8 2.6 1.6 1.3 0.8 2.5 1.7l0.2 0.1q1.1 0.7 2.2 1.5v0.1q2.3 1.5 4.4 3.3 2.1 1.8 4 3.8 1.9 2 3.5 4.2 1.6 2.2 3 4.6 0.8 1.3 1.6 2.8 0.7 1.4 1.4 2.8 0.6 1.5 1.2 3 0.6 1.4 1.1 2.9 0.8 2.3 1.4 4.5zm-501.9 33.6q0 5 0.6 10.8 0.1 1.4 0.3 2.9 0.2 1.4 0.5 2.8 0.3 1.5 0.6 2.9 0.4 1.4 0.8 2.8 0.3 1.3 0.8 2.6 0.5 1.4 1.1 2.6 0.5 1.3 1.2 2.6 0.6 1.2 1.3 2.5 0.7 1.1 1.6 2.3 0.8 1.1 1.7 2.1 1 1 2 2 1 0.9 2.2 1.7 1.2 0.9 2.4 1.7 1.3 0.7 2.7 1.3 1.4 0.5 2.8 0.9 1.4 0.4 2.9 0.6h-111.2l-91.6-141.9v93.1q0 2.4 0.1 4.8 0.1 2.4 0.4 4.9 0.2 2.4 0.5 4.8 0.4 2.4 0.8 4.7 0.5 2.4 1.2 4.7 0.7 2.4 1.8 4.6 1 2.2 2.3 4.2 1.3 2.1 2.9 4 0.5 0.6 1.1 1.1 0.6 0.6 1.1 1.2 0.6 0.5 1.3 1 0.6 0.6 1.2 1 0.7 0.6 1.4 1.1 0.7 0.5 1.4 1 0.7 0.5 1.4 1 0.8 0.5 1.5 0.9 2.9 1.7 6.9 3.8h-97.2q0.2 0 0.4-0.1 0.2 0 0.4-0.1 0.2-0.1 0.4-0.1 0.2-0.1 0.4-0.2 1.4-0.5 3.1-1.1 1.8-0.5 3.4-1.1 0.3-0.2 0.6-0.3 0.3-0.1 0.6-0.3 0.4-0.1 0.6-0.3 0.3-0.2 0.6-0.3 1.2-0.7 2.3-1.5 1.1-0.8 2.1-1.7 0.9-0.9 1.8-1.9 0.9-1 1.7-2.1 0.7-1 1.4-2.1 0.7-1.1 1.2-2.2 0.6-1.2 1.1-2.4 0.5-1.2 0.9-2.4 0.4-1.2 0.7-2.5 0.4-1.2 0.7-2.5 0.2-1.3 0.4-2.6 0.2-1.2 0.4-2.5 0.5-5.3 0.8-10.3 0.3-6.7 0.4-13.4v-100.1q-0.2-6.2-0.2-9.3 0-1.9 0-3.8-0.1-1.9-0.2-3.8-0.2-1.9-0.4-3.8-0.2-1.8-0.4-3.7-0.3-2-0.7-3.9-0.3-2-0.9-3.9-0.5-1.9-1.1-3.8-0.6-1.9-1.4-3.7-0.7-1.7-1.6-3.4-0.9-1.6-2-3.1-1.1-1.5-2.4-2.9-1.2-1.4-2.7-2.6-1.5-1.3-3.3-2.3-1.7-1-3.6-1.7-1.9-0.7-3.9-1-2-0.4-4.1-0.4h112.7l93.2 142.3v-94.5q0-2-0.1-3.9-0.1-1.9-0.3-3.8-0.1-1.9-0.3-3.9-0.3-1.9-0.6-3.8-0.2-1.9-0.7-3.9-0.4-1.9-1-3.8-0.5-1.9-1.3-3.8-0.7-1.9-1.6-3.7-0.8-1.6-1.7-3.2-1-1.6-2.2-3.1-1.2-1.5-2.5-2.9-1.3-1.3-2.8-2.5-1.6-1.2-3.3-2.2-1.8-1-3.7-1.7-1.9-0.7-3.9-1.1-2-0.4-4.1-0.5h99.4q-1.5 0.2-2.9 0.6-1.4 0.3-2.8 0.9-1.4 0.6-2.7 1.3-1.2 0.7-2.4 1.6-1.2 0.9-2.2 1.8-1 0.9-2 2-0.9 1-1.7 2.1-0.9 1.1-1.6 2.3-0.7 1.2-1.3 2.5-0.7 1.2-1.2 2.5-0.6 1.3-1.1 2.7-0.5 1.3-0.8 2.6-0.4 1.4-0.8 2.8-0.3 1.4-0.6 2.8-0.3 1.5-0.5 2.9-0.2 1.4-0.3 2.9-0.6 5.8-0.6 10.8c0 0 0 121 0 121zm-297 1.3q0.1 2.7 0.4 5.3 0.3 2.6 0.8 5.2 0.6 2.5 1.4 5 0.8 2.5 1.8 5 0.9 2 2 3.9 1.1 1.9 2.3 3.8 1.2 1.8 2.6 3.5 1.4 1.7 3 3.3 1.6 1.4 3.3 2.7 1.6 1.2 3.5 2.4 1.8 1.1 3.7 2 1.9 1 3.8 1.7c0 0-164.2 0.1-199.8 0.1-35.5 0-57.9-28-85.9-71.2-5.9-9.1-11.6-18.2-16.9-27-10 12.6-18.3 23.4-23.7 30.3q0 1.9 0 3.8 0.2 10.3 1.4 21 0.2 2.5 0.7 5 0.4 2.5 0.9 4.9 0.6 2.5 1.2 4.9 0.7 2.4 1.5 4.8 0.7 2.1 1.6 4.1 0.9 2 2 4 1.1 1.9 2.4 3.7 1.3 1.8 2.7 3.5 1.4 1.5 3 2.9 1.6 1.3 3.4 2.3 1.8 1.1 3.8 1.8 2 0.7 4.1 1.1h-135.6q2.3-0.2 4.5-0.8 2.2-0.6 4.3-1.6 2.1-0.9 4.1-2.1 1.9-1.2 3.6-2.7 1.6-1.4 3.1-3 1.4-1.6 2.6-3.3 1.3-1.7 2.3-3.6 1.1-1.8 2-3.7 0.9-2 1.6-4.1 0.8-2.1 1.4-4.2 0.6-2.1 1.1-4.3 0.5-2.1 0.8-4.3c0.4-2.7 0.7-5.2 1-7.8l0.4-9.5v-123.7q2.9-0.2 5.7-0.4 2.9-0.3 5.7-0.6 2.9-0.4 5.7-0.8 2.9-0.4 5.7-1c3.6-0.5 7.2-1.1 10.6-1.8q3.8-0.8 7.5-1.6 3.7-0.9 7.4-1.9 3.7-0.9 7.4-2 3.7-1.1 7.3-2.4c3.2-1 6.3-2.2 9.3-3.4q1.1-0.5 2.3-0.9v67.8l70-82.6c14-16.5 4.3-30 4.3-30h105.7q-9.8 1.9-19.3 5.2-9.4 3.3-18.2 7.9-8.9 4.6-17 10.3-8.1 5.7-15.3 12.5c-9.8 11-22 25.5-34.7 41.1 13.5 25.3 29.8 54.4 44.2 76.4 24.5 37.3 57.6 68.4 89.3 81 0.7-0.5 1.5-1 2.2-1.6q1.4-1.3 2.8-2.7 1.3-1.4 2.5-2.9 1.3-1.6 2.3-3.2 1.1-1.6 2-3.3 1.1-2.4 2-4.9 0.9-2.4 1.5-5 0.6-2.5 0.9-5.1 0.2-2.6 0.2-5.2 0.3-7.5 0.3-12.8v-110.9q0.1-3.3-0.1-6.6-0.2-3.3-0.8-6.5-0.6-3.3-1.5-6.5-0.9-3.1-2.1-6.2-0.9-2-1.9-4-1.1-1.9-2.4-3.7-1.2-1.8-2.6-3.5-1.4-1.7-3-3.2-1.6-1.4-3.2-2.5-1.7-1.1-3.5-2.1-1.9-0.9-3.8-1.7-1.9-0.7-3.9-1.3h129.5q-2 0.7-3.9 1.5-1.8 0.7-3.7 1.7-1.8 1-3.5 2.1-1.7 1.1-3.3 2.4-1.3 1.1-2.6 2.4-1.3 1.3-2.4 2.7-1.1 1.3-2.1 2.8-1 1.5-1.8 3.1-0.8 1.6-1.5 3.2-0.7 1.7-1.3 3.4-0.6 1.7-1 3.5-0.5 1.7-0.8 3.5-0.3 1.4-0.5 2.8-0.2 1.4-0.3 2.8-0.2 1.4-0.3 2.8-0.1 1.4-0.2 2.8v83.8c0 0 0 40.2 0 40.2zm469.4-63.7q-2-1.1-4.2-2-2.1-0.9-4.3-1.4-2.3-0.6-4.6-0.8h120.9q-1.8 0.5-3.5 1.3-1.7 0.7-3.3 1.6-1.6 1-3.1 2.1-1.5 1.1-2.8 2.4-1.2 1.2-2.4 2.6-1.1 1.3-2.1 2.8-1 1.4-1.9 3-0.8 1.5-1.5 3.1-0.7 1.7-1.3 3.4-0.6 1.7-1.1 3.4-0.5 1.7-0.9 3.5-0.4 1.8-0.7 3.6-0.2 1.7-0.4 3.4-0.3 1.8-0.4 3.5-0.1 1.8-0.2 3.5-0.1 1.8-0.1 3.6v63.9q-1.8-1.7-3.9-3.1-2-1.5-4.1-2.7-2.2-1.2-4.5-2.2-2.3-1-4.7-1.7-2.3-0.6-4.5-1-2.3-0.5-4.6-0.7-2.3-0.3-4.6-0.4-2.4-0.1-4.7 0-2.4 0.1-4.8 0.4-2.4 0.2-4.8 0.6-2.4 0.4-4.8 0.9-2.3 0.5-4.7 1.2c-6.5 1.7-12.9 3.6-19.3 5.5q-9.6 2.9-19.1 5.3-2.2 0.6-4.5 1-2.3 0.5-4.7 0.8-2.3 0.3-4.6 0.5-2.3 0.2-4.7 0.3-5.2 0.2-10.3 0-5.2-0.2-10.3-0.9-5.1-0.6-10.2-1.7-5.1-1.1-10-2.5-4.4-1.3-8.6-3.1-4.2-1.7-8.2-3.8-4-2.1-7.8-4.6-3.8-2.5-7.3-5.3-3.5-2.8-6.7-6-3.2-3.1-6-6.6-2.8-3.4-5.3-7.1-2.5-3.7-4.6-7.6-2.3-4.1-4.2-8.5-0.9-2.2-1.7-4.3-0.9-2.2-1.6-4.5-0.8-2.2-1.4-4.4-0.7-2.3-1.2-4.6-2.2-11.2-2.7-22.7-0.4-11.5 0.8-22.9 1.3-11.4 4.3-22.5 2.9-11.1 7.5-21.6l0.2-0.2q1.4-2.7 3.1-5.3 1.7-2.5 3.5-5 1.8-2.4 3.8-4.7 2-2.4 4.1-4.6 2.7-2.7 5.5-5.2 2.9-2.5 5.9-4.8 3.1-2.3 6.3-4.3 3.2-2.1 6.6-3.9 3.4-1.8 7-3.4 3.5-1.6 7.2-3 3.6-1.3 7.4-2.5 3.7-1.1 7.5-1.9 4-0.9 8-1.6 4.1-0.7 8.1-1.1 4.1-0.5 8.2-0.7 4.1-0.2 8.2-0.2 2 0 4 0.1 2 0 4.1 0.1 2 0.1 4 0.2 2 0.2 4 0.4 2 0.2 3.9 0.5 2 0.2 3.9 0.5 2 0.4 3.9 0.8 1.9 0.4 3.8 0.8 7.7 1.9 16.1 4.7 2.1 0.6 4.2 1.2 2.1 0.6 4.2 1.1 2.1 0.5 4.3 0.9 2.1 0.4 4.3 0.7 2 0.3 4 0.6 1.9 0.2 3.9 0.4 2 0.1 4 0.2 2 0.1 4 0.1c0.5 0 0.9 0 1.3 0q1-0.1 2-0.2 1.1-0.2 2.1-0.4 1-0.2 2.1-0.5 1-0.2 2-0.5 1-0.3 2.1-0.6 3.2-1.4 6.1-3.5 2.9-2 5.3-4.6 2.4-2.6 4.2-5.6 1.8-3 3-6.3v95.8c-5.5-14.6-18.2-24.7-33.8-34.7q-5.2-3.3-10.7-6-5.5-2.8-11.2-5-5.7-2.3-11.6-4.1-5.8-1.8-11.9-3-4.8-1.1-10.1-2-1.3-0.2-2.5-0.4-1.3-0.1-2.6-0.2-1.3-0.1-2.5-0.1-1.3 0-2.6 0-2.5 0.1-5 0.5-2.5 0.3-4.9 1.1-2.4 0.7-4.7 1.7-2.2 1.1-4.3 2.4-1.9 1.3-3.6 2.7-1.8 1.5-3.3 3.1-1.6 1.6-2.9 3.4-1.4 1.8-2.5 3.7-1.2 2-2.2 4.1-1 2.1-1.9 4.3-0.8 2.1-1.5 4.3-0.7 2.3-1.2 4.5-2.3 10.2-3.4 20.6-1.1 10.4-1 20.9 0.1 10.4 1.3 20.8 1.3 10.4 3.8 20.6v-0.2q0.4 2.3 1 4.5 0.7 2.2 1.4 4.4 0.8 2.2 1.8 4.3 0.9 2.1 2 4.1 1.1 2 2.4 3.9 1.3 1.8 2.9 3.5 1.5 1.7 3.2 3.2 1.8 1.5 3.7 2.8 2.2 1.5 4.6 2.5 2.4 1.1 5 1.7 2.5 0.7 5.2 1 2.6 0.3 5.2 0.1 2.1 0.2 4.2 0 2.1-0.1 4.1-0.6 2-0.4 4-1.2 1.9-0.7 3.7-1.7 1.2-0.8 2.3-1.8 1.1-0.9 2-2 0.9-1.1 1.6-2.4 0.7-1.2 1.2-2.5 0.4-1.4 0.8-2.7 0.3-1.3 0.5-2.7 0.2-1.3 0.2-2.7 0.1-1.4 0-2.8-0.3-5.7-0.3-9.9-0.2-8.4 0-16.8 0.1-1.9 0.1-3.8-0.1-1.9-0.3-3.8-0.2-1.9-0.5-3.8-0.4-1.9-0.8-3.7-0.5-1.7-1.1-3.3-0.7-1.6-1.6-3.1-0.9-1.6-2-2.9-1.1-1.4-2.4-2.6-1.8-1.5-3.7-2.7z"/>
	</g>
</svg>