<svg width="490" height="140" viewBox="0 0 490 140" fill="none" xmlns="http://www.w3.org/2000/svg">
<path d="M136.8 2.20001H2.30002V137.1H136.8V2.20001Z" fill="#C0A971"/>
<path d="M134.7 4.29999V135H4.40001V4.29999H134.7ZM139 0.100006H0.200012V139.2H139V0.100006Z" fill="#C0A971"/>
<path d="M201.1 81.7C201.1 90.6 194.5 95.7 181.4 95.7H157.3V43.3H179.9C191.6 43.3 198.3 48.2 198.3 56.8C198.3 62.8 195.1 66.8 190.3 68.7C197 70.1 201.1 74.5 201.1 81.7ZM162.8 47.8V66.8H179.5C187.9 66.8 192.8 63.6 192.8 57.3C192.8 51 187.9 47.8 179.5 47.8H162.8ZM195.5 81.2C195.5 74.4 190.5 71.4 181.3 71.4H162.8V91.1H181.3C190.5 91.1 195.5 88.1 195.5 81.2Z" fill="black"/>
<path d="M246.6 90.9V95.7H209.5V43.3H245.4V48.1H215V66.7H242.1V71.4H215V90.9H246.6Z" fill="black"/>
<path d="M269.8 48H251.4V43.2H293.8V48H275.4V95.6H269.9V48H269.8Z" fill="black"/>
<path d="M346.6 95.7L346.5 67.9L333 90.5H326.4L313 68.6V95.6H299.3V43.2H311.5L329.9 73.5L347.9 43.2H360.1L360.2 95.6H346.6V95.7Z" fill="black"/>
<path d="M405.9 68.3H419V90C412.9 94.3 404.6 96.7 397 96.7C380.3 96.7 368.1 85.4 368.1 69.4C368.1 53.4 380.3 42.1 397.3 42.1C407.1 42.1 415.1 45.5 420.2 51.7L410.8 60.2C407.2 56.2 403.1 54.4 398.1 54.4C389.1 54.4 383.1 60.3 383.1 69.4C383.1 78.2 389.1 84.4 397.9 84.4C400.7 84.4 403.4 83.8 405.9 82.7V68.3Z" fill="black"/>
<path d="M475.8 95.7L475.7 67.9L462.2 90.5H455.6L442.2 68.6V95.6H428.5V43.2H440.7L459.1 73.5L477.1 43.2H489.3L489.5 95.6L475.8 95.7Z" fill="black"/>
<path d="M10.7 57.8C10.7 69.3 12.6 80.1 18.5 89V81.2C18.5 71.6 26.3 64.9 34.1 60.4C26 63.3 17.1 61.5 10.7 57.8Z" fill="black"/>
<path d="M17.4 49.6H14.8C14.4 48.1 18.5 45.5 19.6 47.4L17.4 49.6ZM9.20001 48.5C11.7 50.1 14.8 50.7 17.7 50.3C20.3 52.1 24 47 27.7 47C33.3 46.3 40.3 45.5 44 50.3L42.2 46.6C37 46.2 32.5 44.4 28.5 42.1C20.4 38.5 16.3 50.3 9.20001 48.5Z" fill="black"/>
<path d="M4.40002 29.5C7.00002 30.2 9.60002 31 12.2 31C17.8 28.8 19.3 24.3 17 18.4C14 14 9.50002 11 4.40002 9.89999V29.5Z" fill="black"/>
<path d="M41.6 135C42.6 134.1 43.4 133.1 44.2 132C59.1 112.7 30.1 101.5 30.8 83C31.5 75.6 35.6 70 40.4 64L40 63.6C35.5 68.1 33.7 71 30.7 75.5C21.8 93.7 34.4 118.9 21.4 134.5L41.6 135Z" fill="black"/>
<path d="M101.7 69.6C101.7 96.3 89.1 119.7 69.4 134.9H134.7V4.29999H69.4C89.8 19.8 101.8 44 101.7 69.6Z" fill="black"/>
<path d="M4.4 135H15.5L18.1 132.4C33.3 111.6 15.1 97.1 4 80.8L4.4 135Z" fill="black"/>
<path d="M35.2 4.29999H4.40002V6.5C7.50002 7 10.5 7.80001 13.3 9.10001C19.6 12.8 24.4 18.8 23.7 26.2L37.4 24.7C39.3 20.2 40 13.2 38.1 9.5C37.6 7.5 36.6 5.79999 35.2 4.29999Z" fill="black"/>
<path d="M41.6 4.29999C44.6 8.39999 44.6 13.6 44.9 17.7C50.5 13.6 57.2 11 64.2 12.9C59.4 9.19999 56 6.2 50.1 4L41.6 4.29999Z" fill="black"/>
<path d="M69.1 70.8L68 73.8L66.5 70.1C63.2 70.8 59.8 71.9 58 75.7C57.6 76.8 58.4 78.7 57.3 79.4C55.1 79 56.2 75.3 56.2 73.1C58.8 70.5 65.8 64.9 68.5 67.2C69.1 67.4 69.4 69.3 69.1 70.8ZM54.2 97.5C52.4 96 53.1 93.4 53.1 91.6L54.2 90.5C56 96.4 60.9 89.4 64.6 90.1C66.4 89.4 65.7 86.8 67.6 87.1C70.5 96.4 59.4 94.5 54.2 97.5ZM80.9 98.6C82.4 86.3 81.3 73.3 72.4 64.8C70.6 64.4 67.9 65.5 66.5 63.7C62.4 67.4 57.2 68.9 53.5 73C49.4 74.1 45.3 71.5 41.2 70.8V69.3C35.6 73 37.1 80.4 36 86C37.5 92.3 44.5 94.9 49 98.6C56.1 99.7 62.4 96.7 68.3 94.5C69.4 95.6 70.9 96.4 70.2 97.8C65.4 104.5 58.3 107.5 50.2 106.7C55 116 51.7 126.7 46.5 134.9H51.3C66.1 128.3 79.8 117.9 80.9 98.6Z" fill="black"/>
<path d="M91.7 48.5C87.6 34.4 75 15.5 58.3 16.6C52 17 45.7 21.8 43.5 25.5C48.3 28.4 52.8 31.8 56.9 35.5C56.5 37 57.6 38.8 55.8 39.6C53.6 37.7 51.7 33.3 48.7 34.8C50.9 39.6 56.9 40 61.3 41.1C63.1 42.9 62.4 45.9 66.1 44.4C67.9 44.8 68.7 47 69.1 48.5C66.1 54.1 58 50.3 53.5 51.5C57.2 53 61.3 53.3 64.6 55.6C67.9 57.9 69.1 52.6 70.5 50.8C76.4 52.3 73.1 58.6 75.7 61.9C88.3 74.9 85.7 97.9 79.4 112.8C96.9 97.5 95.4 62.6 91.7 48.5Z" fill="black"/>
</svg>
