<?xml version="1.0" encoding="UTF-8"?>
<svg width="98px" height="24px" viewBox="0 0 98 24" version="1.1" xmlns="http://www.w3.org/2000/svg" xmlns:xlink="http://www.w3.org/1999/xlink">
    <!-- Generator: sketchtool 49.3 (51167) - http://www.bohemiancoding.com/sketch -->
    <title>1545C528-CA89-476F-8423-375FE99609E0</title>
    <desc>Created with sketchtool.</desc>
    <defs></defs>
    <g id="Symbols" stroke="none" stroke-width="1" fill="none" fill-rule="evenodd">
        <g id="logoPinnacle">
            <g>
                <polygon id="Fill-1" fill="#FF5500" points="0 24 98 24 98 20 0 20"></polygon>
                <polygon id="Fill-2" fill="#FFFFFF" points="77 1 80.8222061 1 80.8222061 13.3396861 87 13.3396861 87 17 77 17"></polygon>
                <polygon id="Fill-3" fill="#FFFFFF" points="88 1 88 17 98 17 98 13.4493989 91.6845268 13.4493989 91.6845268 10.731409 98 10.731409 98 7.18080794 91.6845268 7.18080794 91.6845268 4.55060106 98 4.55060106 98 1"></polygon>
                <g id="Group-12" fill="#FFFFFF">
                    <path d="M3.82707697,4.58739648 L3.82707697,9.41497662 L5.90943339,9.41497662 C7.28718752,9.41497662 8.31501148,8.45827141 8.31501148,7.01221781 C8.31501148,5.56616421 7.28718752,4.58739648 5.90943339,4.58739648 L3.82707697,4.58739648 Z M2.09204959e-05,1.0500134 L6.06250169,1.0500134 C9.80211006,1.0500134 12.1857914,3.74199711 12.1857914,6.98994246 C12.1857914,10.260376 9.82393711,13.0189729 6.0406049,13.0189729 L3.82707697,13.0189729 L3.82707697,17.2903786 L2.09204959e-05,17.2903786 L2.09204959e-05,1.0500134 Z" id="Fill-4"></path>
                    <polygon id="Fill-6" points="13.1706377 17.2904283 17.0195207 17.2904283 17.0195207 1.05006306 13.1706377 1.05006306"></polygon>
                    <polygon id="Fill-8" points="18.1565985 1.05003468 22.2242403 1.05003468 28.9784224 10.7701766 28.9784224 1.05003468 32.7617546 1.05003468 32.7617546 17.2903999 28.9784224 17.2903999 21.9618275 6.91157436 21.9618275 17.2903999 18.1565985 17.2903999"></polygon>
                    <path d="M54.0153954,12.1576119 L55.4515177,8.97181056 L56.8875703,12.1576119 L54.0153954,12.1576119 Z M59.2013074,17.2903786 L63.6562572,17.2903786 L55.5875009,0.025630846 L55.3154647,0.025630846 L47.2467084,17.2903786 L51.7016583,17.2903786 L52.5025646,15.5137417 L58.4004011,15.5137417 L59.2013074,17.2903786 Z" id="Fill-9"></path>
                    <path d="M73.23532,11.0167023 C72.5793229,12.5517864 71.2671197,13.6641353 69.3645401,13.6641353 C66.8277207,13.6641353 65.1000365,11.6396319 65.1000365,9.17033079 C65.1000365,6.65626616 66.8713748,4.63176274 69.4081942,4.63176274 C71.1577752,4.63176274 72.4261849,5.54391724 73.1478025,6.98997084 L76.4938267,4.83209905 C75.0723487,2.42934025 72.469839,0.827642932 69.3863671,0.827642932 C64.6845554,0.827642932 61.2073598,4.43156831 61.2073598,9.17033079 C61.2073598,9.18437704 61.2082663,9.19813952 61.2083361,9.21218576 L64.3135653,15.8564842 C65.6577071,16.8976797 67.3844151,17.5128058 69.3863671,17.5128058 C72.7979421,17.5128058 75.4003123,15.6218836 76.7562394,12.9298999 L73.23532,11.0167023 Z" id="Fill-10"></path>
                    <polygon id="Fill-11" points="46.0943796 16.9157554 48.5554668 11.6497622 48.5554668 1.05002759 44.7721345 1.05002759 44.7721345 10.7701695 38.0179524 1.05002759 33.9503107 1.05002759 33.9503107 17.2903928 37.75547 17.2903928 37.75547 6.9116382 44.7721345 17.2903928 45.9192751 17.2903928"></polygon>
                </g>
            </g>
        </g>
    </g>
</svg>